<svg width="844" height="109" viewBox="0 0 844 109" fill="none" xmlns="http://www.w3.org/2000/svg">
<g filter="url(#filter0_d_94_203)">
<rect x="4" width="836" height="101" rx="20" fill="#F83804"/>
<path d="M316.105 46.2955H312.56C312.423 45.5379 312.17 44.8712 311.798 44.2955C311.427 43.7197 310.973 43.2311 310.435 42.8295C309.897 42.428 309.295 42.125 308.628 41.9205C307.969 41.7159 307.268 41.6136 306.526 41.6136C305.185 41.6136 303.984 41.9508 302.923 42.625C301.87 43.2992 301.037 44.2879 300.423 45.5909C299.817 46.8939 299.514 48.4848 299.514 50.3636C299.514 52.2576 299.817 53.8561 300.423 55.1591C301.037 56.4621 301.874 57.447 302.935 58.1136C303.995 58.7803 305.188 59.1136 306.514 59.1136C307.249 59.1136 307.946 59.0152 308.605 58.8182C309.272 58.6136 309.874 58.3144 310.412 57.9205C310.95 57.5265 311.404 57.0455 311.776 56.4773C312.154 55.9015 312.416 55.2424 312.56 54.5L316.105 54.5114C315.916 55.6553 315.548 56.7083 315.003 57.6705C314.465 58.625 313.772 59.4508 312.923 60.1477C312.082 60.8371 311.12 61.3712 310.037 61.75C308.954 62.1288 307.772 62.3182 306.491 62.3182C304.476 62.3182 302.681 61.8409 301.105 60.8864C299.529 59.9242 298.287 58.5492 297.378 56.7614C296.476 54.9735 296.026 52.8409 296.026 50.3636C296.026 47.8788 296.48 45.7462 297.389 43.9659C298.298 42.178 299.541 40.8068 301.116 39.8523C302.692 38.8902 304.484 38.4091 306.491 38.4091C307.726 38.4091 308.878 38.5871 309.946 38.9432C311.022 39.2917 311.988 39.8068 312.844 40.4886C313.7 41.1629 314.408 41.9886 314.969 42.9659C315.529 43.9356 315.908 45.0455 316.105 46.2955ZM320.034 62V44.5455H323.318V47.3182H323.5C323.818 46.3788 324.379 45.6402 325.182 45.1023C325.992 44.5568 326.909 44.2841 327.932 44.2841C328.144 44.2841 328.394 44.2917 328.682 44.3068C328.977 44.322 329.208 44.3409 329.375 44.3636V47.6136C329.239 47.5758 328.996 47.5341 328.648 47.4886C328.299 47.4356 327.951 47.4091 327.602 47.4091C326.799 47.4091 326.083 47.5795 325.455 47.9205C324.833 48.2538 324.341 48.7197 323.977 49.3182C323.614 49.9091 323.432 50.5833 323.432 51.3409V62H320.034ZM339.213 62.3523C337.493 62.3523 336.012 61.9848 334.77 61.25C333.535 60.5076 332.58 59.4659 331.906 58.125C331.24 56.7765 330.906 55.197 330.906 53.3864C330.906 51.5985 331.24 50.0227 331.906 48.6591C332.58 47.2955 333.52 46.2311 334.724 45.4659C335.937 44.7008 337.353 44.3182 338.974 44.3182C339.959 44.3182 340.914 44.4811 341.838 44.8068C342.762 45.1326 343.592 45.6439 344.327 46.3409C345.062 47.0379 345.641 47.9432 346.065 49.0568C346.49 50.1629 346.702 51.5076 346.702 53.0909V54.2955H332.827V51.75H343.372C343.372 50.8561 343.19 50.0644 342.827 49.375C342.463 48.678 341.952 48.1288 341.293 47.7273C340.641 47.3258 339.876 47.125 338.997 47.125C338.043 47.125 337.209 47.3598 336.497 47.8295C335.793 48.2917 335.247 48.8977 334.861 49.6477C334.482 50.3902 334.293 51.197 334.293 52.0682V54.0568C334.293 55.2235 334.497 56.2159 334.906 57.0341C335.323 57.8523 335.902 58.4773 336.645 58.9091C337.387 59.3333 338.255 59.5455 339.247 59.5455C339.891 59.5455 340.478 59.4545 341.009 59.2727C341.539 59.0833 341.997 58.803 342.384 58.4318C342.77 58.0606 343.065 57.6023 343.27 57.0568L346.486 57.6364C346.228 58.5833 345.766 59.4129 345.099 60.125C344.44 60.8295 343.611 61.3788 342.611 61.7727C341.618 62.1591 340.486 62.3523 339.213 62.3523ZM355.551 62.3864C354.445 62.3864 353.445 62.1818 352.551 61.7727C351.657 61.3561 350.949 60.7538 350.426 59.9659C349.911 59.178 349.653 58.2121 349.653 57.0682C349.653 56.0833 349.843 55.2727 350.222 54.6364C350.6 54 351.112 53.4962 351.756 53.125C352.4 52.7538 353.119 52.4735 353.915 52.2841C354.71 52.0947 355.521 51.9508 356.347 51.8523C357.392 51.7311 358.241 51.6326 358.892 51.5568C359.544 51.4735 360.017 51.3409 360.312 51.1591C360.608 50.9773 360.756 50.6818 360.756 50.2727V50.1932C360.756 49.2008 360.475 48.4318 359.915 47.8864C359.362 47.3409 358.536 47.0682 357.438 47.0682C356.294 47.0682 355.392 47.322 354.733 47.8295C354.081 48.3295 353.631 48.8864 353.381 49.5L350.188 48.7727C350.566 47.7121 351.119 46.8561 351.847 46.2045C352.581 45.5455 353.426 45.0682 354.381 44.7727C355.335 44.4697 356.339 44.3182 357.392 44.3182C358.089 44.3182 358.828 44.4015 359.608 44.5682C360.396 44.7273 361.131 45.0227 361.812 45.4545C362.502 45.8864 363.066 46.5038 363.506 47.3068C363.945 48.1023 364.165 49.1364 364.165 50.4091V62H360.847V59.6136H360.71C360.491 60.053 360.161 60.4848 359.722 60.9091C359.282 61.3333 358.718 61.6856 358.028 61.9659C357.339 62.2462 356.513 62.3864 355.551 62.3864ZM356.29 59.6591C357.229 59.6591 358.032 59.4735 358.699 59.1023C359.373 58.7311 359.884 58.2462 360.233 57.6477C360.589 57.0417 360.767 56.3939 360.767 55.7045V53.4545C360.646 53.5758 360.411 53.6894 360.062 53.7955C359.722 53.8939 359.331 53.9811 358.892 54.0568C358.453 54.125 358.025 54.1894 357.608 54.25C357.191 54.303 356.843 54.3485 356.562 54.3864C355.903 54.4697 355.301 54.6098 354.756 54.8068C354.218 55.0038 353.786 55.2879 353.46 55.6591C353.142 56.0227 352.983 56.5076 352.983 57.1136C352.983 57.9545 353.294 58.5909 353.915 59.0227C354.536 59.447 355.328 59.6591 356.29 59.6591ZM376.838 44.5455V47.2727H367.304V44.5455H376.838ZM369.861 40.3636H373.259V56.875C373.259 57.5341 373.357 58.0303 373.554 58.3636C373.751 58.6894 374.005 58.9129 374.315 59.0341C374.634 59.1477 374.978 59.2045 375.349 59.2045C375.622 59.2045 375.861 59.1856 376.065 59.1477C376.27 59.1098 376.429 59.0795 376.543 59.0568L377.156 61.8636C376.959 61.9394 376.679 62.0152 376.315 62.0909C375.952 62.1742 375.497 62.2197 374.952 62.2273C374.058 62.2424 373.224 62.0833 372.452 61.75C371.679 61.4167 371.054 60.9015 370.577 60.2045C370.099 59.5076 369.861 58.6326 369.861 57.5795V40.3636ZM387.932 62.3523C386.212 62.3523 384.731 61.9848 383.489 61.25C382.254 60.5076 381.299 59.4659 380.625 58.125C379.958 56.7765 379.625 55.197 379.625 53.3864C379.625 51.5985 379.958 50.0227 380.625 48.6591C381.299 47.2955 382.239 46.2311 383.443 45.4659C384.655 44.7008 386.072 44.3182 387.693 44.3182C388.678 44.3182 389.633 44.4811 390.557 44.8068C391.481 45.1326 392.311 45.6439 393.045 46.3409C393.78 47.0379 394.36 47.9432 394.784 49.0568C395.208 50.1629 395.42 51.5076 395.42 53.0909V54.2955H381.545V51.75H392.091C392.091 50.8561 391.909 50.0644 391.545 49.375C391.182 48.678 390.67 48.1288 390.011 47.7273C389.36 47.3258 388.595 47.125 387.716 47.125C386.761 47.125 385.928 47.3598 385.216 47.8295C384.511 48.2917 383.966 48.8977 383.58 49.6477C383.201 50.3902 383.011 51.197 383.011 52.0682V54.0568C383.011 55.2235 383.216 56.2159 383.625 57.0341C384.042 57.8523 384.621 58.4773 385.364 58.9091C386.106 59.3333 386.973 59.5455 387.966 59.5455C388.61 59.5455 389.197 59.4545 389.727 59.2727C390.258 59.0833 390.716 58.803 391.102 58.4318C391.489 58.0606 391.784 57.6023 391.989 57.0568L395.205 57.6364C394.947 58.5833 394.485 59.4129 393.818 60.125C393.159 60.8295 392.33 61.3788 391.33 61.7727C390.337 62.1591 389.205 62.3523 387.932 62.3523ZM415.807 44.5455V47.2727H406.273V44.5455H415.807ZM408.83 40.3636H412.227V56.875C412.227 57.5341 412.326 58.0303 412.523 58.3636C412.72 58.6894 412.973 58.9129 413.284 59.0341C413.602 59.1477 413.947 59.2045 414.318 59.2045C414.591 59.2045 414.83 59.1856 415.034 59.1477C415.239 59.1098 415.398 59.0795 415.511 59.0568L416.125 61.8636C415.928 61.9394 415.648 62.0152 415.284 62.0909C414.92 62.1742 414.466 62.2197 413.92 62.2273C413.027 62.2424 412.193 62.0833 411.42 61.75C410.648 61.4167 410.023 60.9015 409.545 60.2045C409.068 59.5076 408.83 58.6326 408.83 57.5795V40.3636ZM423.338 51.6364V62H419.94V38.7273H423.293V47.3864H423.509C423.918 46.447 424.543 45.7008 425.384 45.1477C426.224 44.5947 427.323 44.3182 428.679 44.3182C429.876 44.3182 430.921 44.5644 431.815 45.0568C432.717 45.5492 433.414 46.2841 433.906 47.2614C434.406 48.2311 434.656 49.4432 434.656 50.8977V62H431.259V51.3068C431.259 50.0265 430.929 49.0341 430.27 48.3295C429.611 47.6174 428.694 47.2614 427.52 47.2614C426.717 47.2614 425.997 47.4318 425.361 47.7727C424.732 48.1136 424.236 48.6136 423.872 49.2727C423.516 49.9242 423.338 50.7121 423.338 51.6364ZM446.713 62.3523C444.993 62.3523 443.512 61.9848 442.27 61.25C441.035 60.5076 440.08 59.4659 439.406 58.125C438.74 56.7765 438.406 55.197 438.406 53.3864C438.406 51.5985 438.74 50.0227 439.406 48.6591C440.08 47.2955 441.02 46.2311 442.224 45.4659C443.437 44.7008 444.853 44.3182 446.474 44.3182C447.459 44.3182 448.414 44.4811 449.338 44.8068C450.262 45.1326 451.092 45.6439 451.827 46.3409C452.562 47.0379 453.141 47.9432 453.565 49.0568C453.99 50.1629 454.202 51.5076 454.202 53.0909V54.2955H440.327V51.75H450.872C450.872 50.8561 450.69 50.0644 450.327 49.375C449.963 48.678 449.452 48.1288 448.793 47.7273C448.141 47.3258 447.376 47.125 446.497 47.125C445.543 47.125 444.709 47.3598 443.997 47.8295C443.293 48.2917 442.747 48.8977 442.361 49.6477C441.982 50.3902 441.793 51.197 441.793 52.0682V54.0568C441.793 55.2235 441.997 56.2159 442.406 57.0341C442.823 57.8523 443.402 58.4773 444.145 58.9091C444.887 59.3333 445.755 59.5455 446.747 59.5455C447.391 59.5455 447.978 59.4545 448.509 59.2727C449.039 59.0833 449.497 58.803 449.884 58.4318C450.27 58.0606 450.565 57.6023 450.77 57.0568L453.986 57.6364C453.728 58.5833 453.266 59.4129 452.599 60.125C451.94 60.8295 451.111 61.3788 450.111 61.7727C449.118 62.1591 447.986 62.3523 446.713 62.3523ZM466.713 62V38.7273H481.304V41.75H470.224V48.8409H480.543V51.8523H470.224V58.9773H481.44V62H466.713ZM500.653 44.5455L494.324 62H490.688L484.347 44.5455H487.994L492.415 57.9773H492.597L497.006 44.5455H500.653ZM510.776 62.3523C509.056 62.3523 507.575 61.9848 506.332 61.25C505.098 60.5076 504.143 59.4659 503.469 58.125C502.802 56.7765 502.469 55.197 502.469 53.3864C502.469 51.5985 502.802 50.0227 503.469 48.6591C504.143 47.2955 505.082 46.2311 506.287 45.4659C507.499 44.7008 508.916 44.3182 510.537 44.3182C511.522 44.3182 512.476 44.4811 513.401 44.8068C514.325 45.1326 515.154 45.6439 515.889 46.3409C516.624 47.0379 517.204 47.9432 517.628 49.0568C518.052 50.1629 518.264 51.5076 518.264 53.0909V54.2955H504.389V51.75H514.935C514.935 50.8561 514.753 50.0644 514.389 49.375C514.026 48.678 513.514 48.1288 512.855 47.7273C512.204 47.3258 511.438 47.125 510.56 47.125C509.605 47.125 508.772 47.3598 508.06 47.8295C507.355 48.2917 506.81 48.8977 506.423 49.6477C506.045 50.3902 505.855 51.197 505.855 52.0682V54.0568C505.855 55.2235 506.06 56.2159 506.469 57.0341C506.885 57.8523 507.465 58.4773 508.207 58.9091C508.95 59.3333 509.817 59.5455 510.81 59.5455C511.454 59.5455 512.041 59.4545 512.571 59.2727C513.101 59.0833 513.56 58.803 513.946 58.4318C514.332 58.0606 514.628 57.6023 514.832 57.0568L518.048 57.6364C517.791 58.5833 517.329 59.4129 516.662 60.125C516.003 60.8295 515.173 61.3788 514.173 61.7727C513.181 62.1591 512.048 62.3523 510.776 62.3523ZM525.432 51.6364V62H522.034V44.5455H525.295V47.3864H525.511C525.913 46.4621 526.542 45.7197 527.398 45.1591C528.261 44.5985 529.348 44.3182 530.659 44.3182C531.848 44.3182 532.89 44.5682 533.784 45.0682C534.678 45.5606 535.371 46.2955 535.864 47.2727C536.356 48.25 536.602 49.4583 536.602 50.8977V62H533.205V51.3068C533.205 50.0417 532.875 49.053 532.216 48.3409C531.557 47.6212 530.652 47.2614 529.5 47.2614C528.712 47.2614 528.011 47.4318 527.398 47.7727C526.792 48.1136 526.311 48.6136 525.955 49.2727C525.606 49.9242 525.432 50.7121 525.432 51.6364ZM549.307 44.5455V47.2727H539.773V44.5455H549.307ZM542.33 40.3636H545.727V56.875C545.727 57.5341 545.826 58.0303 546.023 58.3636C546.22 58.6894 546.473 58.9129 546.784 59.0341C547.102 59.1477 547.447 59.2045 547.818 59.2045C548.091 59.2045 548.33 59.1856 548.534 59.1477C548.739 59.1098 548.898 59.0795 549.011 59.0568L549.625 61.8636C549.428 61.9394 549.148 62.0152 548.784 62.0909C548.42 62.1742 547.966 62.2197 547.42 62.2273C546.527 62.2424 545.693 62.0833 544.92 61.75C544.148 61.4167 543.523 60.9015 543.045 60.2045C542.568 59.5076 542.33 58.6326 542.33 57.5795V40.3636Z" fill="white"/>
</g>
<defs>
<filter id="filter0_d_94_203" x="0" y="0" width="844" height="109" filterUnits="userSpaceOnUse" color-interpolation-filters="sRGB">
<feFlood flood-opacity="0" result="BackgroundImageFix"/>
<feColorMatrix in="SourceAlpha" type="matrix" values="0 0 0 0 0 0 0 0 0 0 0 0 0 0 0 0 0 0 127 0" result="hardAlpha"/>
<feOffset dy="4"/>
<feGaussianBlur stdDeviation="2"/>
<feComposite in2="hardAlpha" operator="out"/>
<feColorMatrix type="matrix" values="0 0 0 0 0 0 0 0 0 0 0 0 0 0 0 0 0 0 0.25 0"/>
<feBlend mode="normal" in2="BackgroundImageFix" result="effect1_dropShadow_94_203"/>
<feBlend mode="normal" in="SourceGraphic" in2="effect1_dropShadow_94_203" result="shape"/>
</filter>
</defs>
</svg>
