<svg width="508" height="87" viewBox="0 0 508 87" fill="none" xmlns="http://www.w3.org/2000/svg">
<g filter="url(#filter0_d_17_138)">
<rect x="4" width="500" height="79" rx="20" fill="#F83804"/>
<path d="M154.869 51V27.7273H163.165C164.968 27.7273 166.464 28.0379 167.653 28.6591C168.85 29.2803 169.744 30.1402 170.335 31.2386C170.926 32.3295 171.222 33.5909 171.222 35.0227C171.222 36.447 170.922 37.7008 170.324 38.7841C169.733 39.8598 168.839 40.697 167.642 41.2955C166.453 41.8939 164.956 42.1932 163.153 42.1932H156.869V39.1705H162.835C163.972 39.1705 164.896 39.0076 165.608 38.6818C166.328 38.3561 166.854 37.8826 167.188 37.2614C167.521 36.6402 167.688 35.8939 167.688 35.0227C167.688 34.1439 167.517 33.3826 167.176 32.7386C166.843 32.0947 166.316 31.6023 165.597 31.2614C164.884 30.9129 163.949 30.7386 162.79 30.7386H158.381V51H154.869ZM166.358 40.5L172.108 51H168.108L162.472 40.5H166.358ZM182.526 51.3523C180.806 51.3523 179.325 50.9848 178.082 50.25C176.848 49.5076 175.893 48.4659 175.219 47.125C174.552 45.7765 174.219 44.197 174.219 42.3864C174.219 40.5985 174.552 39.0227 175.219 37.6591C175.893 36.2955 176.832 35.2311 178.037 34.4659C179.249 33.7008 180.666 33.3182 182.287 33.3182C183.272 33.3182 184.226 33.4811 185.151 33.8068C186.075 34.1326 186.904 34.6439 187.639 35.3409C188.374 36.0379 188.954 36.9432 189.378 38.0568C189.802 39.1629 190.014 40.5076 190.014 42.0909V43.2955H176.139V40.75H186.685C186.685 39.8561 186.503 39.0644 186.139 38.375C185.776 37.678 185.264 37.1288 184.605 36.7273C183.954 36.3258 183.188 36.125 182.31 36.125C181.355 36.125 180.522 36.3598 179.81 36.8295C179.105 37.2917 178.56 37.8977 178.173 38.6477C177.795 39.3902 177.605 40.197 177.605 41.0682V43.0568C177.605 44.2235 177.81 45.2159 178.219 46.0341C178.635 46.8523 179.215 47.4773 179.957 47.9091C180.7 48.3333 181.567 48.5455 182.56 48.5455C183.204 48.5455 183.791 48.4545 184.321 48.2727C184.851 48.0833 185.31 47.803 185.696 47.4318C186.082 47.0606 186.378 46.6023 186.582 46.0568L189.798 46.6364C189.541 47.5833 189.079 48.4129 188.412 49.125C187.753 49.8295 186.923 50.3788 185.923 50.7727C184.931 51.1591 183.798 51.3523 182.526 51.3523ZM201.102 57.9091C199.716 57.9091 198.523 57.7273 197.523 57.3636C196.53 57 195.72 56.5189 195.091 55.9205C194.462 55.322 193.992 54.6667 193.682 53.9545L196.602 52.75C196.807 53.0833 197.08 53.4356 197.42 53.8068C197.769 54.1856 198.239 54.5076 198.83 54.7727C199.428 55.0379 200.197 55.1705 201.136 55.1705C202.424 55.1705 203.489 54.8561 204.33 54.2273C205.17 53.6061 205.591 52.6136 205.591 51.25V47.8182H205.375C205.17 48.1894 204.875 48.6023 204.489 49.0568C204.11 49.5114 203.587 49.9053 202.92 50.2386C202.254 50.572 201.386 50.7386 200.318 50.7386C198.939 50.7386 197.697 50.4167 196.591 49.7727C195.492 49.1212 194.621 48.1629 193.977 46.8977C193.341 45.625 193.023 44.0606 193.023 42.2045C193.023 40.3485 193.337 38.7576 193.966 37.4318C194.602 36.1061 195.473 35.0909 196.58 34.3864C197.686 33.6742 198.939 33.3182 200.341 33.3182C201.424 33.3182 202.299 33.5 202.966 33.8636C203.633 34.2197 204.152 34.6364 204.523 35.1136C204.902 35.5909 205.193 36.0114 205.398 36.375H205.648V33.5455H208.977V51.3864C208.977 52.8864 208.629 54.1174 207.932 55.0795C207.235 56.0417 206.292 56.7538 205.102 57.2159C203.92 57.678 202.587 57.9091 201.102 57.9091ZM201.068 47.9205C202.045 47.9205 202.871 47.6932 203.545 47.2386C204.227 46.7765 204.742 46.1174 205.091 45.2614C205.447 44.3977 205.625 43.3636 205.625 42.1591C205.625 40.9848 205.451 39.9508 205.102 39.0568C204.754 38.1629 204.242 37.4659 203.568 36.9659C202.894 36.4583 202.061 36.2045 201.068 36.2045C200.045 36.2045 199.193 36.4697 198.511 37C197.83 37.5227 197.314 38.2348 196.966 39.1364C196.625 40.0379 196.455 41.0455 196.455 42.1591C196.455 43.303 196.629 44.3068 196.977 45.1705C197.326 46.0341 197.841 46.7083 198.523 47.1932C199.212 47.678 200.061 47.9205 201.068 47.9205ZM213.534 51V33.5455H216.932V51H213.534ZM215.25 30.8523C214.659 30.8523 214.152 30.6553 213.727 30.2614C213.311 29.8598 213.102 29.3826 213.102 28.8295C213.102 28.2689 213.311 27.7917 213.727 27.3977C214.152 26.9962 214.659 26.7955 215.25 26.7955C215.841 26.7955 216.345 26.9962 216.761 27.3977C217.186 27.7917 217.398 28.2689 217.398 28.8295C217.398 29.3826 217.186 29.8598 216.761 30.2614C216.345 30.6553 215.841 30.8523 215.25 30.8523ZM234.582 37.8068L231.503 38.3523C231.374 37.9583 231.17 37.5833 230.889 37.2273C230.616 36.8712 230.245 36.5795 229.776 36.3523C229.306 36.125 228.719 36.0114 228.014 36.0114C227.052 36.0114 226.249 36.2273 225.605 36.6591C224.961 37.0833 224.639 37.6326 224.639 38.3068C224.639 38.8902 224.855 39.3598 225.287 39.7159C225.719 40.072 226.416 40.3636 227.378 40.5909L230.151 41.2273C231.757 41.5985 232.954 42.1705 233.741 42.9432C234.529 43.7159 234.923 44.7197 234.923 45.9545C234.923 47 234.62 47.9318 234.014 48.75C233.416 49.5606 232.579 50.197 231.503 50.6591C230.435 51.1212 229.196 51.3523 227.787 51.3523C225.832 51.3523 224.238 50.9356 223.003 50.1023C221.768 49.2614 221.01 48.0682 220.73 46.5227L224.014 46.0227C224.219 46.8788 224.639 47.5265 225.276 47.9659C225.912 48.3977 226.741 48.6136 227.764 48.6136C228.878 48.6136 229.768 48.3826 230.435 47.9205C231.101 47.4508 231.435 46.8788 231.435 46.2045C231.435 45.6591 231.23 45.2008 230.821 44.8295C230.42 44.4583 229.802 44.178 228.969 43.9886L226.014 43.3409C224.385 42.9697 223.181 42.3788 222.401 41.5682C221.628 40.7576 221.241 39.7311 221.241 38.4886C221.241 37.4583 221.529 36.5568 222.105 35.7841C222.681 35.0114 223.476 34.4091 224.491 33.9773C225.507 33.5379 226.67 33.3182 227.98 33.3182C229.866 33.3182 231.351 33.7273 232.435 34.5455C233.518 35.3561 234.234 36.4432 234.582 37.8068ZM246.807 33.5455V36.2727H237.273V33.5455H246.807ZM239.83 29.3636H243.227V45.875C243.227 46.5341 243.326 47.0303 243.523 47.3636C243.72 47.6894 243.973 47.9129 244.284 48.0341C244.602 48.1477 244.947 48.2045 245.318 48.2045C245.591 48.2045 245.83 48.1856 246.034 48.1477C246.239 48.1098 246.398 48.0795 246.511 48.0568L247.125 50.8636C246.928 50.9394 246.648 51.0152 246.284 51.0909C245.92 51.1742 245.466 51.2197 244.92 51.2273C244.027 51.2424 243.193 51.0833 242.42 50.75C241.648 50.4167 241.023 49.9015 240.545 49.2045C240.068 48.5076 239.83 47.6326 239.83 46.5795V29.3636ZM257.901 51.3523C256.181 51.3523 254.7 50.9848 253.457 50.25C252.223 49.5076 251.268 48.4659 250.594 47.125C249.927 45.7765 249.594 44.197 249.594 42.3864C249.594 40.5985 249.927 39.0227 250.594 37.6591C251.268 36.2955 252.207 35.2311 253.412 34.4659C254.624 33.7008 256.041 33.3182 257.662 33.3182C258.647 33.3182 259.601 33.4811 260.526 33.8068C261.45 34.1326 262.279 34.6439 263.014 35.3409C263.749 36.0379 264.329 36.9432 264.753 38.0568C265.177 39.1629 265.389 40.5076 265.389 42.0909V43.2955H251.514V40.75H262.06C262.06 39.8561 261.878 39.0644 261.514 38.375C261.151 37.678 260.639 37.1288 259.98 36.7273C259.329 36.3258 258.563 36.125 257.685 36.125C256.73 36.125 255.897 36.3598 255.185 36.8295C254.48 37.2917 253.935 37.8977 253.548 38.6477C253.17 39.3902 252.98 40.197 252.98 41.0682V43.0568C252.98 44.2235 253.185 45.2159 253.594 46.0341C254.01 46.8523 254.59 47.4773 255.332 47.9091C256.075 48.3333 256.942 48.5455 257.935 48.5455C258.579 48.5455 259.166 48.4545 259.696 48.2727C260.226 48.0833 260.685 47.803 261.071 47.4318C261.457 47.0606 261.753 46.6023 261.957 46.0568L265.173 46.6364C264.916 47.5833 264.454 48.4129 263.787 49.125C263.128 49.8295 262.298 50.3788 261.298 50.7727C260.306 51.1591 259.173 51.3523 257.901 51.3523ZM269.159 51V33.5455H272.443V36.3182H272.625C272.943 35.3788 273.504 34.6402 274.307 34.1023C275.117 33.5568 276.034 33.2841 277.057 33.2841C277.269 33.2841 277.519 33.2917 277.807 33.3068C278.102 33.322 278.333 33.3409 278.5 33.3636V36.6136C278.364 36.5758 278.121 36.5341 277.773 36.4886C277.424 36.4356 277.076 36.4091 276.727 36.4091C275.924 36.4091 275.208 36.5795 274.58 36.9205C273.958 37.2538 273.466 37.7197 273.102 38.3182C272.739 38.9091 272.557 39.5833 272.557 40.3409V51H269.159ZM308.966 27.7273V51H305.739L293.909 33.9318H293.693V51H290.182V27.7273H293.432L305.273 44.8182H305.489V27.7273H308.966ZM321.168 51.3523C319.531 51.3523 318.103 50.9773 316.884 50.2273C315.664 49.4773 314.717 48.428 314.043 47.0795C313.368 45.7311 313.031 44.1553 313.031 42.3523C313.031 40.5417 313.368 38.9583 314.043 37.6023C314.717 36.2462 315.664 35.1932 316.884 34.4432C318.103 33.6932 319.531 33.3182 321.168 33.3182C322.804 33.3182 324.232 33.6932 325.452 34.4432C326.671 35.1932 327.618 36.2462 328.293 37.6023C328.967 38.9583 329.304 40.5417 329.304 42.3523C329.304 44.1553 328.967 45.7311 328.293 47.0795C327.618 48.428 326.671 49.4773 325.452 50.2273C324.232 50.9773 322.804 51.3523 321.168 51.3523ZM321.179 48.5C322.24 48.5 323.118 48.2197 323.815 47.6591C324.512 47.0985 325.027 46.3523 325.361 45.4205C325.702 44.4886 325.872 43.4621 325.872 42.3409C325.872 41.2273 325.702 40.2045 325.361 39.2727C325.027 38.3333 324.512 37.5795 323.815 37.0114C323.118 36.4432 322.24 36.1591 321.179 36.1591C320.111 36.1591 319.224 36.4432 318.52 37.0114C317.823 37.5795 317.304 38.3333 316.963 39.2727C316.63 40.2045 316.463 41.2273 316.463 42.3409C316.463 43.4621 316.63 44.4886 316.963 45.4205C317.304 46.3523 317.823 47.0985 318.52 47.6591C319.224 48.2197 320.111 48.5 321.179 48.5ZM336.349 51L331.213 33.5455H334.724L338.145 46.3636H338.315L341.747 33.5455H345.259L348.668 46.3068H348.838L352.236 33.5455H355.747L350.622 51H347.156L343.611 38.3977H343.349L339.804 51H336.349Z" fill="white"/>
</g>
<defs>
<filter id="filter0_d_17_138" x="0" y="0" width="508" height="87" filterUnits="userSpaceOnUse" color-interpolation-filters="sRGB">
<feFlood flood-opacity="0" result="BackgroundImageFix"/>
<feColorMatrix in="SourceAlpha" type="matrix" values="0 0 0 0 0 0 0 0 0 0 0 0 0 0 0 0 0 0 127 0" result="hardAlpha"/>
<feOffset dy="4"/>
<feGaussianBlur stdDeviation="2"/>
<feComposite in2="hardAlpha" operator="out"/>
<feColorMatrix type="matrix" values="0 0 0 0 0 0 0 0 0 0 0 0 0 0 0 0 0 0 0.25 0"/>
<feBlend mode="normal" in2="BackgroundImageFix" result="effect1_dropShadow_17_138"/>
<feBlend mode="normal" in="SourceGraphic" in2="effect1_dropShadow_17_138" result="shape"/>
</filter>
</defs>
</svg>
